<svg width="11" height="12" viewBox="0 0 11 12" fill="none" xmlns="http://www.w3.org/2000/svg">
<path d="M10.7094 10.3379C10.7094 10.8072 10.327 11.1876 9.85522 11.1876L5.17227 11.1782C3.8517 11.1043 2.62175 10.5437 1.69981 9.5932C0.753125 8.61712 0.231781 7.33246 0.231781 5.97576C0.231781 3.10195 2.58191 0.763916 5.47058 0.763916C6.83431 0.763916 8.12567 1.28259 9.10672 2.2244C10.0622 3.1416 10.6257 4.36523 10.6999 5.679L10.7094 10.3379ZM9.12055 5.83359C9.04503 3.87496 7.44177 2.34074 5.47058 2.34074C3.45584 2.34074 1.81677 3.97139 1.81677 5.97576C1.81677 7.93682 3.35895 9.53184 5.32766 9.60693L9.00814 9.61078C9.07231 9.61078 9.12439 9.55875 9.12439 9.49453L9.12055 5.83359Z" fill="#5DE1C4"/>
</svg>
